<?xml version="1.0" encoding="utf-8"?>
<svg xmlns="http://www.w3.org/2000/svg" viewBox="0 0 1920 670" width="1920px" height="670px">
  <rect x="0" width="1920" height="670" fill="#0F0E0F" stroke="white" style="stroke-width: 10px;" y="0"/>
  <g transform="matrix(5.5833330154418945, 0, 0, 5.5833330154418945, -3580, -1200)">
    <path fill-rule="evenodd" clip-rule="evenodd" d="M 715.526 225.455 C 688.511 225.455 666.672 247.455 666.672 274.672 C 666.672 296.428 680.665 314.844 700.077 321.362 C 702.504 321.852 703.393 320.303 703.393 319 C 703.393 317.859 703.313 313.948 703.313 309.873 C 689.723 312.807 686.893 304.006 686.893 304.006 C 684.709 298.302 681.473 296.836 681.473 296.836 C 677.025 293.821 681.797 293.821 681.797 293.821 C 686.731 294.147 689.32 298.873 689.32 298.873 C 693.687 306.369 700.724 304.251 703.555 302.947 C 703.959 299.769 705.254 297.569 706.629 296.347 C 695.79 295.206 684.386 290.969 684.386 272.064 C 684.386 266.686 686.326 262.286 689.4 258.864 C 688.915 257.642 687.216 252.589 689.886 245.826 C 689.886 245.826 694.011 244.522 703.312 250.878 C 707.294 249.8 711.401 249.252 715.526 249.248 C 719.651 249.248 723.856 249.819 727.739 250.878 C 737.041 244.522 741.166 245.826 741.166 245.826 C 743.836 252.589 742.136 257.642 741.651 258.864 C 744.806 262.286 746.666 266.686 746.666 272.064 C 746.666 290.969 735.262 295.124 724.342 296.347 C 726.122 297.895 727.658 300.828 727.658 305.473 C 727.658 312.073 727.578 317.37 727.578 318.999 C 727.578 320.303 728.468 321.852 730.894 321.363 C 750.306 314.843 764.299 296.428 764.299 274.672 C 764.379 247.455 742.46 225.455 715.526 225.455 Z" fill="#ffffff"/>
  </g>
  <g id="svg1" transform="matrix(2.104625940322876, 0, 0, 2.104625940322876, 1149.9999999999995, 659.9999999999998)" style="">
    <g id="layer-MC0" transform="matrix(1, 0, 0, 1, -334.388733, -305.267181)">
      <path id="path16" d="m 0,0 h -30.267 c -0.781,0 -1.415,-0.634 -1.415,-1.415 v -14.798 c 0,-0.781 0.634,-1.416 1.415,-1.416 h 11.807 v -18.386 c 0,0 -2.651,-0.903 -9.981,-0.903 -8.647,0 -20.727,3.159 -20.727,29.723 0,26.569 12.579,30.065 24.388,30.065 10.222,0 14.626,-1.8 17.428,-2.667 0.881,-0.269 1.695,0.607 1.695,1.388 l 3.377,14.298 c 0,0.366 -0.124,0.806 -0.54,1.105 -1.138,0.812 -8.081,4.697 -25.621,4.697 -20.205,0 -40.932,-8.597 -40.932,-49.922 0,-41.326 23.73,-47.484 43.727,-47.484 16.557,0 26.601,7.075 26.601,7.075 0.414,0.228 0.459,0.807 0.459,1.072 V -1.415 C 1.414,-0.634 0.781,0 0,0" style="fill:#ffffff;fill-opacity:1;fill-rule:nonzero;stroke:none" transform="matrix(1.3333333,0,0,-1.3333333,236.37493,182.6504)" clip-path="url(#clipPath17)"/>
      <path id="path18" d="m 0,0 c 0,0.787 -0.624,1.423 -1.405,1.423 h -17.042 c -0.779,0 -1.411,-0.636 -1.411,-1.423 0,-0.004 0.004,-32.935 0.004,-32.935 H -46.418 V 0 c 0,0.787 -0.627,1.423 -1.407,1.423 h -17.041 c -0.775,0 -1.407,-0.636 -1.407,-1.423 v -89.178 c 0,-0.786 0.632,-1.426 1.407,-1.426 h 17.041 c 0.78,0 1.407,0.64 1.407,1.426 v 38.145 h 26.564 c 0,0 -0.046,-38.142 -0.046,-38.145 0,-0.786 0.631,-1.426 1.412,-1.426 h 17.082 c 0.78,0 1.404,0.64 1.406,1.426 z" style="fill:#ffffff;fill-opacity:1;fill-rule:nonzero;stroke:none" transform="matrix(1.3333333,0,0,-1.3333333,444.3528,133.66467)" clip-path="url(#clipPath19)"/>
      <path id="path20" d="m 0,0 c 0,6.136 -4.92,11.095 -10.99,11.095 -6.064,0 -10.987,-4.959 -10.987,-11.095 0,-6.13 4.923,-11.103 10.987,-11.103 C -4.92,-11.103 0,-6.13 0,0" style="fill:#ffffff;fill-opacity:1;fill-rule:nonzero;stroke:none" transform="matrix(1.3333333,0,0,-1.3333333,279.25387,149.2676)" clip-path="url(#clipPath21)"/>
      <path id="path22" d="m 0,0 v 41.165 c 0,0.781 -0.63,1.42 -1.41,1.42 h -16.988 c -0.78,0 -1.477,-0.803 -1.477,-1.585 v -58.977 c 0,-1.732 1.08,-2.248 2.478,-2.248 h 15.306 c 1.679,0 2.091,0.825 2.091,2.276 z" style="fill:#ffffff;fill-opacity:1;fill-rule:nonzero;stroke:none" transform="matrix(1.3333333,0,0,-1.3333333,277.62893,227.48627)" clip-path="url(#clipPath23)"/>
      <path id="path24" d="m 0,0 h -16.911 c -0.776,0 -1.407,-0.639 -1.407,-1.426 v -43.726 c 0,0 -4.297,-3.144 -10.395,-3.144 -6.098,0 -7.716,2.767 -7.716,8.738 v 38.132 c 0,0.787 -0.63,1.426 -1.406,1.426 h -17.164 c -0.774,0 -1.409,-0.639 -1.409,-1.426 v -41.019 c 0,-17.735 9.884,-22.074 23.481,-22.074 11.156,0 20.15,6.163 20.15,6.163 0,0 0.427,-3.248 0.622,-3.633 0.193,-0.384 0.698,-0.772 1.244,-0.772 l 10.919,0.048 c 0.774,0 1.409,0.64 1.409,1.424 L 1.411,-1.426 C 1.411,-0.639 0.779,0 0,0" style="fill:#ffffff;fill-opacity:1;fill-rule:nonzero;stroke:none" transform="matrix(1.3333333,0,0,-1.3333333,530.7096,170.8848)" clip-path="url(#clipPath25)"/>
      <path id="path26" d="m 0,0 c -5.866,0.179 -9.845,2.84 -9.845,2.84 v 28.241 c 0,0 3.925,2.406 8.741,2.836 6.09,0.545 11.958,-1.294 11.958,-15.822 C 10.854,2.776 8.206,-0.248 0,0 m 6.67,50.245 c -9.605,0 -16.138,-4.286 -16.138,-4.286 v 30.198 c 0,0.787 -0.63,1.423 -1.406,1.423 h -17.091 c -0.777,0 -1.408,-0.636 -1.408,-1.423 v -89.178 c 0,-0.787 0.631,-1.427 1.41,-1.427 h 11.858 c 0.534,0 0.938,0.276 1.237,0.758 0.295,0.479 0.72,4.111 0.72,4.111 0,0 6.988,-6.622 20.217,-6.622 15.532,0 24.439,7.878 24.439,35.366 0,27.488 -14.226,31.08 -23.838,31.08" style="fill:#ffffff;fill-opacity:1;fill-rule:nonzero;stroke:none" transform="matrix(1.3333333,0,0,-1.3333333,583.44533,235.20707)" clip-path="url(#clipPath27)"/>
      <path id="path28" d="m 0,0 h -12.784 c 0,0 -0.019,16.885 -0.019,16.889 0,0.639 -0.329,0.959 -1.069,0.959 h -17.42 c -0.677,0 -1.041,-0.299 -1.041,-0.95 V -0.554 c 0,0 -8.73,-2.107 -9.32,-2.278 -0.588,-0.17 -1.021,-0.712 -1.021,-1.359 v -10.967 c 0,-0.788 0.63,-1.425 1.409,-1.425 h 8.932 v -26.384 c 0,-19.596 13.746,-21.521 23.021,-21.521 4.239,0 9.309,1.361 10.146,1.67 0.506,0.186 0.801,0.71 0.801,1.278 l 0.014,12.065 c 0,0.787 -0.665,1.424 -1.413,1.424 -0.745,0 -2.651,-0.303 -4.613,-0.303 -6.279,0 -8.407,2.919 -8.407,6.698 0,3.777 -10e-4,25.073 -10e-4,25.073 H 0 c 0.779,0 1.411,0.637 1.411,1.425 V -1.421 C 1.411,-0.634 0.779,0 0,0" style="fill:#ffffff;fill-opacity:1;fill-rule:nonzero;stroke:none" transform="matrix(1.3333333,0,0,-1.3333333,342.9356,170.69533)" clip-path="url(#clipPath29)"/>
    </g>
  </g>
  <g id="group-3" stroke-linecap="round" fill-rule="evenodd" font-size="9pt" stroke="#000" stroke-width="0mm" fill="#000000" style="stroke:#000;stroke-width:0mm;fill:#ffffff" transform="matrix(1, 0, 0, 1, 770, 125)">
    <path d="M 256.65 109.35 L 240.15 109.35 L 219.75 30.6 L 231.9 30.6 L 243.6 77.25 L 248.4 98.55 L 249.3 98.55 L 253.65 77.25 L 264.3 30.6 L 279 30.6 L 290.25 77.25 L 294.9 98.7 L 295.65 98.7 L 300.3 77.25 L 311.85 30.6 L 323.55 30.6 L 303.3 109.35 L 287.25 109.35 L 276.3 65.1 L 271.8 44.25 L 271.05 44.25 L 266.85 65.1 L 256.65 109.35 Z M 58.05 109.35 L 40.95 109.35 L 0 0 L 14.25 0 L 36 62.25 L 49.05 98.7 L 49.95 98.7 L 63.15 62.25 L 84.9 0 L 99 0 L 58.05 109.35 Z M 471.9 109.35 L 459.9 109.35 L 459.9 30.6 L 471.45 30.6 L 471.9 46.95 L 472.8 46.95 C 475.2 41.15 478.9 36.775 483.9 33.825 C 488.9 30.875 494.35 29.4 500.25 29.4 C 504.35 29.4 508.125 30 511.575 31.2 C 515.025 32.4 518.025 34.35 520.575 37.05 C 523.125 39.75 525.1 43.225 526.5 47.475 C 527.9 51.725 528.6 56.9 528.6 63 L 528.6 109.35 L 516.45 109.35 L 516.45 65.4 C 516.45 59.5 515.725 54.65 514.275 50.85 C 512.825 47.05 510.625 44.225 507.675 42.375 C 504.725 40.525 500.95 39.6 496.35 39.6 C 491.45 39.6 487.15 40.8 483.45 43.2 C 479.75 45.6 476.9 48.825 474.9 52.875 C 472.9 56.925 471.9 61.55 471.9 66.75 L 471.9 109.35 Z M 212.55 72 L 155.4 72 C 155.5 78.5 156.525 83.925 158.475 88.275 C 160.425 92.625 163.175 95.875 166.725 98.025 C 170.275 100.175 174.45 101.25 179.25 101.25 C 184.85 101.25 189.45 99.95 193.05 97.35 C 196.65 94.75 199.05 91.3 200.25 87 L 211.95 87 C 211.05 92 209.075 96.275 206.025 99.825 C 202.975 103.375 199.15 106.075 194.55 107.925 C 189.95 109.775 184.85 110.7 179.25 110.7 C 171.75 110.7 165.325 109.05 159.975 105.75 C 154.625 102.45 150.55 97.75 147.75 91.65 C 144.95 85.55 143.55 78.45 143.55 70.35 C 143.55 62.05 144.95 54.825 147.75 48.675 C 150.55 42.525 154.55 37.775 159.75 34.425 C 164.95 31.075 171.3 29.4 178.8 29.4 C 186.8 29.4 193.4 31.2 198.6 34.8 C 203.8 38.4 207.575 43.4 209.925 49.8 C 212.275 56.2 213.15 63.6 212.55 72 Z M 404.1 110.7 C 398.4 110.7 393.225 109.75 388.575 107.85 C 383.925 105.95 379.925 103.2 376.575 99.6 C 373.225 96 370.625 91.725 368.775 86.775 C 366.925 81.825 366 76.3 366 70.2 C 366 62.1 367.55 55 370.65 48.9 C 373.75 42.8 378.175 38.025 383.925 34.575 C 389.675 31.125 396.4 29.4 404.1 29.4 C 409.8 29.4 414.975 30.325 419.625 32.175 C 424.275 34.025 428.25 36.75 431.55 40.35 C 434.85 43.95 437.4 48.25 439.2 53.25 C 441 58.25 441.9 63.85 441.9 70.05 C 441.9 78.05 440.375 85.1 437.325 91.2 C 434.275 97.3 429.9 102.075 424.2 105.525 C 418.5 108.975 411.8 110.7 404.1 110.7 Z M 126.3 109.35 L 114.15 109.35 L 114.15 30.6 L 126.3 30.6 L 126.3 109.35 Z M 404.1 100.2 C 409.2 100.2 413.65 99.025 417.45 96.675 C 421.25 94.325 424.225 90.875 426.375 86.325 C 428.525 81.775 429.6 76.35 429.6 70.05 C 429.6 65.35 429 61.125 427.8 57.375 C 426.6 53.625 424.9 50.425 422.7 47.775 C 420.5 45.125 417.85 43.1 414.75 41.7 C 411.65 40.3 408.1 39.6 404.1 39.6 C 399 39.6 394.525 40.825 390.675 43.275 C 386.825 45.725 383.825 49.2 381.675 53.7 C 379.525 58.2 378.45 63.7 378.45 70.2 C 378.45 74.8 379.025 78.975 380.175 82.725 C 381.325 86.475 383.025 89.65 385.275 92.25 C 387.525 94.85 390.25 96.825 393.45 98.175 C 396.65 99.525 400.2 100.2 404.1 100.2 Z M 158.775 50.625 C 156.825 54.475 155.642 63.3 155.642 63.3 L 200.698 63.3 C 200.698 63.3 199.95 54.025 198.15 50.175 C 196.35 46.325 193.775 43.475 190.425 41.625 C 187.075 39.775 183.2 38.85 178.8 38.85 C 174.2 38.85 170.2 39.85 166.8 41.85 C 163.4 43.85 160.725 46.775 158.775 50.625 Z M 120.45 17.1 C 118.15 17.1 116.3 16.475 114.9 15.225 C 113.5 13.975 112.8 12.3 112.8 10.2 C 112.8 8.1 113.5 6.45 114.9 5.25 C 116.3 4.05 118.15 3.45 120.45 3.45 C 122.65 3.45 124.45 4.05 125.85 5.25 C 127.25 6.45 127.95 8.1 127.95 10.2 C 127.95 12.3 127.25 13.975 125.85 15.225 C 124.45 16.475 122.65 17.1 120.45 17.1 Z" vector-effect="non-scaling-stroke"/>
  </g>
</svg>